<svg xmlns="http://www.w3.org/2000/svg" xmlns:xlink="http://www.w3.org/1999/xlink" width="500" zoomAndPan="magnify" viewBox="0 0 375 374.999991" height="500" preserveAspectRatio="xMidYMid meet" version="1.2"><defs/><g id="948331bc74"><rect x="0" width="375" y="0" height="374.999991" style="fill:#ffffff;fill-opacity:1;stroke:none;"/><rect x="0" width="375" y="0" height="374.999991" style="fill:#ededed;fill-opacity:1;stroke:none;"/><g style="fill:#2e2e2e;fill-opacity:1;"><g transform="translate(34.040338, 286.673946)"><path style="stroke:none" d="M 157.6875 -29.4375 C 149.863281 -19.457031 140.378906 -11.804688 129.234375 -6.484375 C 118.097656 -1.160156 106.207031 1.5 93.5625 1.5 C 78.757812 1.5 65.117188 -2.242188 52.640625 -9.734375 C 40.003906 -17.046875 30.023438 -27.109375 22.703125 -39.921875 C 15.378906 -52.554688 11.71875 -66.363281 11.71875 -81.34375 C 11.71875 -96.3125 15.378906 -110.195312 22.703125 -123 C 30.023438 -135.8125 40.003906 -145.875 52.640625 -153.1875 C 65.117188 -160.507812 78.757812 -164.171875 93.5625 -164.171875 C 105.207031 -164.171875 116.351562 -161.84375 127 -157.1875 C 137.644531 -152.363281 146.789062 -145.625 154.4375 -136.96875 L 138.96875 -123.25 C 133.144531 -129.570312 126.242188 -134.5625 118.265625 -138.21875 C 110.273438 -141.71875 102.039062 -143.46875 93.5625 -143.46875 C 82.582031 -143.46875 72.4375 -140.722656 63.125 -135.234375 C 53.644531 -129.578125 46.160156 -122.007812 40.671875 -112.53125 C 35.179688 -102.875 32.4375 -92.476562 32.4375 -81.34375 C 32.4375 -70.195312 35.179688 -59.882812 40.671875 -50.40625 C 46.160156 -40.75 53.644531 -33.175781 63.125 -27.6875 C 72.4375 -22.039062 82.582031 -19.21875 93.5625 -19.21875 C 102.875 -19.21875 111.773438 -21.296875 120.265625 -25.453125 C 128.578125 -29.441406 135.644531 -35.097656 141.46875 -42.421875 Z M 157.6875 -29.4375 "/></g></g><g style="fill:#2e2e2e;fill-opacity:1;"><g transform="translate(153.552034, 286.673946)"><path style="stroke:none" d="M 136.46875 -44.65625 C 136.46875 -38.175781 134.890625 -32.023438 131.734375 -26.203125 C 128.410156 -20.210938 123.753906 -15.054688 117.765625 -10.734375 C 112.273438 -6.566406 106.035156 -3.40625 99.046875 -1.25 C 91.898438 0.914062 84.5 2 76.84375 2 C 61.539062 2 48.816406 -1.492188 38.671875 -8.484375 C 28.359375 -15.304688 21.625 -23.707031 18.46875 -33.6875 L 37.921875 -44.65625 C 37.921875 -40.164062 39.75 -35.925781 43.40625 -31.9375 C 46.90625 -27.945312 51.648438 -24.785156 57.640625 -22.453125 C 63.617188 -19.960938 70.019531 -18.71875 76.84375 -18.71875 C 83.664062 -18.71875 90.070312 -19.960938 96.0625 -22.453125 C 102.050781 -24.785156 106.789062 -27.945312 110.28125 -31.9375 C 113.769531 -35.757812 115.515625 -40 115.515625 -44.65625 C 115.515625 -48.488281 114.269531 -52.234375 111.78125 -55.890625 C 109.28125 -59.378906 105.703125 -62.375 101.046875 -64.875 C 96.390625 -67.363281 87.820312 -69.359375 75.34375 -70.859375 C 61.375 -72.191406 51.0625 -74.601562 44.40625 -78.09375 C 35.925781 -82.082031 29.273438 -87.65625 24.453125 -94.8125 C 19.460938 -101.789062 16.96875 -109.359375 16.96875 -117.515625 C 16.96875 -124.003906 18.628906 -130.242188 21.953125 -136.234375 C 25.117188 -142.046875 29.609375 -147.117188 35.421875 -151.453125 C 47.234375 -159.929688 61.039062 -164.171875 76.84375 -164.171875 C 84.5 -164.171875 91.816406 -163.085938 98.796875 -160.921875 C 105.785156 -158.765625 112.109375 -155.609375 117.765625 -151.453125 C 126.078125 -145.128906 131.816406 -137.476562 134.984375 -128.5 L 115.515625 -117.515625 C 115.515625 -122.003906 113.769531 -126.242188 110.28125 -130.234375 C 106.789062 -134.234375 102.050781 -137.394531 96.0625 -139.71875 C 89.90625 -142.050781 83.5 -143.21875 76.84375 -143.21875 C 69.851562 -143.21875 63.367188 -142.050781 57.390625 -139.71875 C 51.398438 -137.394531 46.65625 -134.316406 43.15625 -130.484375 C 39.664062 -126.492188 37.921875 -122.171875 37.921875 -117.515625 C 37.921875 -113.523438 39.421875 -109.613281 42.421875 -105.78125 C 45.410156 -101.789062 49.148438 -98.800781 53.640625 -96.8125 C 56.472656 -95.476562 60.550781 -94.3125 65.875 -93.3125 C 71.195312 -92.3125 75.269531 -91.644531 78.09375 -91.3125 C 85.90625 -90.3125 92.3125 -89.234375 97.3125 -88.078125 C 102.300781 -86.910156 106.875 -85.242188 111.03125 -83.078125 C 118.675781 -79.421875 124.828125 -74.097656 129.484375 -67.109375 C 134.140625 -59.960938 136.46875 -52.476562 136.46875 -44.65625 Z M 136.46875 -44.65625 "/></g></g><g style="fill:#2e2e2e;fill-opacity:1;"><g transform="translate(258.342999, 286.673946)"><path style="stroke:none" d=""/></g></g><g style="fill:#2e2e2e;fill-opacity:1;"><g transform="translate(286.28695, 286.673946)"><path style="stroke:none" d="M 27.203125 0 C 24.367188 0 21.953125 -1.082031 19.953125 -3.25 C 17.960938 -5.238281 16.96875 -7.648438 16.96875 -10.484375 C 16.96875 -13.304688 18.046875 -15.71875 20.203125 -17.71875 C 22.203125 -19.707031 24.535156 -20.703125 27.203125 -20.703125 C 30.023438 -20.703125 32.519531 -19.707031 34.6875 -17.71875 C 36.675781 -15.550781 37.671875 -13.140625 37.671875 -10.484375 C 37.671875 -7.648438 36.675781 -5.238281 34.6875 -3.25 C 32.519531 -1.082031 30.023438 0 27.203125 0 Z M 27.203125 0 "/></g></g></g></svg>