<svg xmlns="http://www.w3.org/2000/svg" xmlns:xlink="http://www.w3.org/1999/xlink" width="500" zoomAndPan="magnify" viewBox="0 0 375 374.999991" height="500" preserveAspectRatio="xMidYMid meet" version="1.2"><defs><clipPath id="1ae60716df"><path d="M 56.488281 151.464844 L 317.914062 151.464844 L 317.914062 223.464844 L 56.488281 223.464844 Z M 56.488281 151.464844 "/></clipPath><clipPath id="c9fc905fb8"><path d="M 63.558594 158.238281 L 187.332031 158.238281 L 187.332031 216.761719 L 63.558594 216.761719 Z M 63.558594 158.238281 "/></clipPath></defs><g id="9b7b3cd024"><g clip-rule="nonzero" clip-path="url(#1ae60716df)"><path style="fill:none;stroke-width:6;stroke-linecap:butt;stroke-linejoin:miter;stroke:#000000;stroke-opacity:1;stroke-miterlimit:4;" d="M -0.00131801 -0.000808127 L 348.906825 -0.000808127 L 348.906825 96.092952 L -0.00131801 96.092952 Z M -0.00131801 -0.000808127 " transform="matrix(0.749268,0,0,0.749268,56.489269,151.465449)"/></g><g clip-rule="nonzero" clip-path="url(#c9fc905fb8)"><path style=" stroke:none;fill-rule:nonzero;fill:#000000;fill-opacity:1;" d="M 63.558594 158.238281 L 187.238281 158.238281 L 187.238281 216.761719 L 63.558594 216.761719 Z M 63.558594 158.238281 "/></g><g style="fill:#ffffff;fill-opacity:1;"><g transform="translate(66.922947, 196.927209)"><path style="stroke:none" d="M 9.25 0.171875 C 7.613281 0.171875 6.203125 -0.210938 5.015625 -0.984375 C 3.835938 -1.765625 2.9375 -2.835938 2.3125 -4.203125 C 1.6875 -5.566406 1.375 -7.113281 1.375 -8.84375 C 1.375 -10.582031 1.6875 -12.132812 2.3125 -13.5 C 2.9375 -14.863281 3.835938 -15.929688 5.015625 -16.703125 C 6.203125 -17.484375 7.613281 -17.875 9.25 -17.875 C 11.21875 -17.875 12.84375 -17.316406 14.125 -16.203125 C 15.40625 -15.097656 16.265625 -13.601562 16.703125 -11.71875 L 14.578125 -11.71875 C 14.222656 -13.007812 13.578125 -14.03125 12.640625 -14.78125 C 11.710938 -15.539062 10.59375 -15.921875 9.28125 -15.921875 C 7.457031 -15.921875 6.0625 -15.28125 5.09375 -14 C 4.132812 -12.726562 3.65625 -11.019531 3.65625 -8.875 C 3.65625 -6.707031 4.132812 -4.984375 5.09375 -3.703125 C 6.0625 -2.429688 7.457031 -1.796875 9.28125 -1.796875 C 10.53125 -1.796875 11.601562 -2.132812 12.5 -2.8125 C 13.394531 -3.488281 14.035156 -4.394531 14.421875 -5.53125 L 16.546875 -5.53125 C 16.078125 -3.789062 15.210938 -2.40625 13.953125 -1.375 C 12.703125 -0.34375 11.132812 0.171875 9.25 0.171875 Z M 9.25 0.171875 "/></g></g><g style="fill:#ffffff;fill-opacity:1;"><g transform="translate(86.620128, 196.927209)"><path style="stroke:none" d="M 4.046875 -15.546875 L 4.046875 -9.796875 L 11.625 -9.796875 L 11.625 -8.046875 L 4.046875 -8.046875 L 4.046875 -1.953125 L 12.65625 -1.953125 L 12.65625 0 L 1.875 0 L 1.875 -17.5 L 12.65625 -17.5 L 12.65625 -15.546875 Z M 4.046875 -15.546875 "/></g></g><g style="fill:#ffffff;fill-opacity:1;"><g transform="translate(102.742872, 196.927209)"><path style="stroke:none" d="M 7.65625 0.203125 C 6.300781 0.203125 5.144531 -0.0703125 4.1875 -0.625 C 3.226562 -1.1875 2.503906 -1.910156 2.015625 -2.796875 C 1.535156 -3.679688 1.296875 -4.609375 1.296875 -5.578125 L 1.296875 -5.703125 L 3.671875 -5.703125 L 3.671875 -5.578125 C 3.671875 -4.992188 3.804688 -4.410156 4.078125 -3.828125 C 4.359375 -3.242188 4.796875 -2.753906 5.390625 -2.359375 C 5.992188 -1.972656 6.765625 -1.78125 7.703125 -1.78125 C 8.796875 -1.78125 9.703125 -2.0625 10.421875 -2.625 C 11.140625 -3.1875 11.5 -3.953125 11.5 -4.921875 C 11.5 -5.722656 11.234375 -6.359375 10.703125 -6.828125 C 10.179688 -7.304688 9.515625 -7.628906 8.703125 -7.796875 L 6.15625 -8.28125 C 3.21875 -8.925781 1.75 -10.46875 1.75 -12.90625 C 1.75 -13.90625 1.988281 -14.78125 2.46875 -15.53125 C 2.957031 -16.28125 3.628906 -16.859375 4.484375 -17.265625 C 5.347656 -17.671875 6.34375 -17.875 7.46875 -17.875 C 8.757812 -17.875 9.863281 -17.613281 10.78125 -17.09375 C 11.695312 -16.582031 12.382812 -15.910156 12.84375 -15.078125 C 13.3125 -14.253906 13.546875 -13.40625 13.546875 -12.53125 L 13.546875 -12.421875 L 11.171875 -12.421875 L 11.171875 -12.5 C 11.171875 -13 11.050781 -13.507812 10.8125 -14.03125 C 10.570312 -14.5625 10.171875 -15.015625 9.609375 -15.390625 C 9.054688 -15.773438 8.320312 -15.96875 7.40625 -15.96875 C 6.351562 -15.96875 5.515625 -15.675781 4.890625 -15.09375 C 4.265625 -14.507812 3.953125 -13.785156 3.953125 -12.921875 C 3.953125 -12.191406 4.191406 -11.59375 4.671875 -11.125 C 5.160156 -10.65625 5.820312 -10.335938 6.65625 -10.171875 L 8.953125 -9.71875 C 12.171875 -9.070312 13.78125 -7.5 13.78125 -5 C 13.78125 -3.976562 13.523438 -3.078125 13.015625 -2.296875 C 12.503906 -1.515625 11.78125 -0.898438 10.84375 -0.453125 C 9.914062 -0.015625 8.851562 0.203125 7.65625 0.203125 Z M 7.65625 0.203125 "/></g></g><g style="fill:#ffffff;fill-opacity:1;"><g transform="translate(119.615491, 196.927209)"><path style="stroke:none" d="M 9.25 0.171875 C 7.613281 0.171875 6.203125 -0.210938 5.015625 -0.984375 C 3.835938 -1.765625 2.9375 -2.835938 2.3125 -4.203125 C 1.6875 -5.566406 1.375 -7.113281 1.375 -8.84375 C 1.375 -10.582031 1.6875 -12.132812 2.3125 -13.5 C 2.9375 -14.863281 3.835938 -15.929688 5.015625 -16.703125 C 6.203125 -17.484375 7.613281 -17.875 9.25 -17.875 C 11.21875 -17.875 12.84375 -17.316406 14.125 -16.203125 C 15.40625 -15.097656 16.265625 -13.601562 16.703125 -11.71875 L 14.578125 -11.71875 C 14.222656 -13.007812 13.578125 -14.03125 12.640625 -14.78125 C 11.710938 -15.539062 10.59375 -15.921875 9.28125 -15.921875 C 7.457031 -15.921875 6.0625 -15.28125 5.09375 -14 C 4.132812 -12.726562 3.65625 -11.019531 3.65625 -8.875 C 3.65625 -6.707031 4.132812 -4.984375 5.09375 -3.703125 C 6.0625 -2.429688 7.457031 -1.796875 9.28125 -1.796875 C 10.53125 -1.796875 11.601562 -2.132812 12.5 -2.8125 C 13.394531 -3.488281 14.035156 -4.394531 14.421875 -5.53125 L 16.546875 -5.53125 C 16.078125 -3.789062 15.210938 -2.40625 13.953125 -1.375 C 12.703125 -0.34375 11.132812 0.171875 9.25 0.171875 Z M 9.25 0.171875 "/></g></g><g style="fill:#ffffff;fill-opacity:1;"><g transform="translate(139.312671, 196.927209)"><path style="stroke:none" d="M 9.203125 0.171875 C 7.535156 0.171875 6.101562 -0.207031 4.90625 -0.96875 C 3.71875 -1.738281 2.816406 -2.804688 2.203125 -4.171875 C 1.585938 -5.535156 1.28125 -7.085938 1.28125 -8.828125 C 1.28125 -10.554688 1.59375 -12.109375 2.21875 -13.484375 C 2.84375 -14.859375 3.75 -15.929688 4.9375 -16.703125 C 6.125 -17.484375 7.546875 -17.875 9.203125 -17.875 C 10.835938 -17.875 12.242188 -17.484375 13.421875 -16.703125 C 14.609375 -15.929688 15.507812 -14.863281 16.125 -13.5 C 16.738281 -12.132812 17.046875 -10.566406 17.046875 -8.796875 C 17.046875 -7.046875 16.738281 -5.492188 16.125 -4.140625 C 15.507812 -2.796875 14.609375 -1.738281 13.421875 -0.96875 C 12.242188 -0.207031 10.835938 0.171875 9.203125 0.171875 Z M 9.171875 -1.828125 C 10.328125 -1.828125 11.328125 -2.117188 12.171875 -2.703125 C 13.023438 -3.296875 13.675781 -4.125 14.125 -5.1875 C 14.570312 -6.257812 14.796875 -7.476562 14.796875 -8.84375 C 14.796875 -10.21875 14.570312 -11.4375 14.125 -12.5 C 13.675781 -13.5625 13.023438 -14.394531 12.171875 -15 C 11.328125 -15.601562 10.328125 -15.90625 9.171875 -15.90625 C 8.023438 -15.90625 7.023438 -15.597656 6.171875 -14.984375 C 5.328125 -14.378906 4.675781 -13.539062 4.21875 -12.46875 C 3.769531 -11.40625 3.546875 -10.195312 3.546875 -8.84375 C 3.546875 -7.476562 3.769531 -6.265625 4.21875 -5.203125 C 4.675781 -4.148438 5.328125 -3.320312 6.171875 -2.71875 C 7.023438 -2.125 8.023438 -1.828125 9.171875 -1.828125 Z M 9.171875 -1.828125 "/></g></g><g style="fill:#ffffff;fill-opacity:1;"><g transform="translate(159.584757, 196.927209)"><path style="stroke:none" d="M 2.59375 -14.375 C 3.59375 -14.8125 4.09375 -15.453125 4.09375 -16.296875 C 4.09375 -16.710938 4.019531 -16.972656 3.875 -17.078125 C 3.738281 -17.191406 3.53125 -17.25 3.25 -17.25 C 2.832031 -17.25 2.523438 -17.363281 2.328125 -17.59375 C 2.128906 -17.832031 2.03125 -18.109375 2.03125 -18.421875 C 2.03125 -18.859375 2.160156 -19.207031 2.421875 -19.46875 C 2.691406 -19.738281 3.078125 -19.875 3.578125 -19.875 C 4.722656 -19.875 5.296875 -19.25 5.296875 -18 L 5.296875 -17.125 C 5.296875 -15.257812 4.394531 -14.039062 2.59375 -13.46875 Z M 2.59375 -14.375 "/></g></g><g style="fill:#ffffff;fill-opacity:1;"><g transform="translate(168.98356, 196.927209)"><path style="stroke:none" d="M 7.65625 0.203125 C 6.300781 0.203125 5.144531 -0.0703125 4.1875 -0.625 C 3.226562 -1.1875 2.503906 -1.910156 2.015625 -2.796875 C 1.535156 -3.679688 1.296875 -4.609375 1.296875 -5.578125 L 1.296875 -5.703125 L 3.671875 -5.703125 L 3.671875 -5.578125 C 3.671875 -4.992188 3.804688 -4.410156 4.078125 -3.828125 C 4.359375 -3.242188 4.796875 -2.753906 5.390625 -2.359375 C 5.992188 -1.972656 6.765625 -1.78125 7.703125 -1.78125 C 8.796875 -1.78125 9.703125 -2.0625 10.421875 -2.625 C 11.140625 -3.1875 11.5 -3.953125 11.5 -4.921875 C 11.5 -5.722656 11.234375 -6.359375 10.703125 -6.828125 C 10.179688 -7.304688 9.515625 -7.628906 8.703125 -7.796875 L 6.15625 -8.28125 C 3.21875 -8.925781 1.75 -10.46875 1.75 -12.90625 C 1.75 -13.90625 1.988281 -14.78125 2.46875 -15.53125 C 2.957031 -16.28125 3.628906 -16.859375 4.484375 -17.265625 C 5.347656 -17.671875 6.34375 -17.875 7.46875 -17.875 C 8.757812 -17.875 9.863281 -17.613281 10.78125 -17.09375 C 11.695312 -16.582031 12.382812 -15.910156 12.84375 -15.078125 C 13.3125 -14.253906 13.546875 -13.40625 13.546875 -12.53125 L 13.546875 -12.421875 L 11.171875 -12.421875 L 11.171875 -12.5 C 11.171875 -13 11.050781 -13.507812 10.8125 -14.03125 C 10.570312 -14.5625 10.171875 -15.015625 9.609375 -15.390625 C 9.054688 -15.773438 8.320312 -15.96875 7.40625 -15.96875 C 6.351562 -15.96875 5.515625 -15.675781 4.890625 -15.09375 C 4.265625 -14.507812 3.953125 -13.785156 3.953125 -12.921875 C 3.953125 -12.191406 4.191406 -11.59375 4.671875 -11.125 C 5.160156 -10.65625 5.820312 -10.335938 6.65625 -10.171875 L 8.953125 -9.71875 C 12.171875 -9.070312 13.78125 -7.5 13.78125 -5 C 13.78125 -3.976562 13.523438 -3.078125 13.015625 -2.296875 C 12.503906 -1.515625 11.78125 -0.898438 10.84375 -0.453125 C 9.914062 -0.015625 8.851562 0.203125 7.65625 0.203125 Z M 7.65625 0.203125 "/></g></g><g style="fill:#000000;fill-opacity:1;"><g transform="translate(195.606363, 196.927209)"><path style="stroke:none" d="M 7.78125 0.21875 C 6.375 0.21875 5.15625 -0.0507812 4.125 -0.59375 C 3.101562 -1.144531 2.332031 -1.863281 1.8125 -2.75 C 1.289062 -3.644531 1.03125 -4.578125 1.03125 -5.546875 L 1.03125 -5.75 L 5.296875 -5.75 L 5.296875 -5.578125 C 5.296875 -4.972656 5.507812 -4.421875 5.9375 -3.921875 C 6.375 -3.421875 7.007812 -3.171875 7.84375 -3.171875 C 8.5625 -3.171875 9.132812 -3.351562 9.5625 -3.71875 C 10 -4.09375 10.21875 -4.578125 10.21875 -5.171875 C 10.21875 -5.703125 10.023438 -6.128906 9.640625 -6.453125 C 9.265625 -6.785156 8.800781 -7.007812 8.25 -7.125 L 6.25 -7.53125 C 5.082031 -7.789062 3.988281 -8.285156 2.96875 -9.015625 C 1.957031 -9.753906 1.453125 -10.957031 1.453125 -12.625 C 1.453125 -13.707031 1.710938 -14.640625 2.234375 -15.421875 C 2.765625 -16.203125 3.492188 -16.800781 4.421875 -17.21875 C 5.359375 -17.632812 6.414062 -17.84375 7.59375 -17.84375 C 8.945312 -17.84375 10.113281 -17.582031 11.09375 -17.0625 C 12.082031 -16.550781 12.828125 -15.882812 13.328125 -15.0625 C 13.828125 -14.238281 14.078125 -13.375 14.078125 -12.46875 L 14.078125 -12.34375 L 9.796875 -12.34375 L 9.796875 -12.421875 C 9.796875 -12.953125 9.609375 -13.445312 9.234375 -13.90625 C 8.859375 -14.363281 8.265625 -14.59375 7.453125 -14.59375 C 6.816406 -14.59375 6.3125 -14.414062 5.9375 -14.0625 C 5.5625 -13.71875 5.375 -13.265625 5.375 -12.703125 C 5.375 -12.148438 5.582031 -11.710938 6 -11.390625 C 6.414062 -11.078125 6.914062 -10.863281 7.5 -10.75 L 9.53125 -10.296875 C 10.84375 -10.015625 11.960938 -9.484375 12.890625 -8.703125 C 13.828125 -7.921875 14.296875 -6.78125 14.296875 -5.28125 C 14.296875 -4.175781 14.007812 -3.207031 13.4375 -2.375 C 12.875 -1.539062 12.097656 -0.898438 11.109375 -0.453125 C 10.117188 -0.00390625 9.007812 0.21875 7.78125 0.21875 Z M 7.78125 0.21875 "/></g></g><g style="fill:#000000;fill-opacity:1;"><g transform="translate(210.728962, 196.927209)"><path style="stroke:none" d="M 5.21875 -14.09375 L 5.21875 -10.375 L 11.875 -10.375 L 11.875 -7.34375 L 5.21875 -7.34375 L 5.21875 -3.40625 L 13.125 -3.40625 L 13.125 0 L 1.296875 0 L 1.296875 -17.5 L 13.125 -17.5 L 13.125 -14.09375 Z M 5.21875 -14.09375 "/></g></g><g style="fill:#000000;fill-opacity:1;"><g transform="translate(224.87672, 196.927209)"><path style="stroke:none" d="M 7.203125 -6.125 L 5.171875 -6.125 L 5.171875 0 L 1.296875 0 L 1.296875 -17.5 L 7.953125 -17.5 C 9.335938 -17.5 10.507812 -17.234375 11.46875 -16.703125 C 12.425781 -16.171875 13.132812 -15.46875 13.59375 -14.59375 C 14.0625 -13.71875 14.296875 -12.769531 14.296875 -11.75 C 14.296875 -10.613281 14.007812 -9.59375 13.4375 -8.6875 C 12.875 -7.78125 12.046875 -7.101562 10.953125 -6.65625 L 14.703125 0 L 10.625 0 Z M 5.171875 -9.296875 L 7.328125 -9.296875 C 8.222656 -9.296875 8.976562 -9.484375 9.59375 -9.859375 C 10.21875 -10.234375 10.53125 -10.863281 10.53125 -11.75 C 10.53125 -12.601562 10.222656 -13.207031 9.609375 -13.5625 C 9.003906 -13.914062 8.242188 -14.09375 7.328125 -14.09375 L 5.171875 -14.09375 Z M 5.171875 -9.296875 "/></g></g><g style="fill:#000000;fill-opacity:1;"><g transform="translate(240.074312, 196.927209)"><path style="stroke:none" d="M 0.21875 -17.5 L 4.125 -17.5 L 8.25 -4.171875 L 8.40625 -4.171875 L 12.5 -17.5 L 16.40625 -17.5 L 10.796875 0.03125 L 5.828125 0.03125 Z M 0.21875 -17.5 "/></g></g><g style="fill:#000000;fill-opacity:1;"><g transform="translate(256.671689, 196.927209)"><path style="stroke:none" d="M 1.46875 -17.5 L 5.40625 -17.5 L 5.40625 0 L 1.46875 0 Z M 1.46875 -17.5 "/></g></g><g style="fill:#000000;fill-opacity:1;"><g transform="translate(263.570599, 196.927209)"><path style="stroke:none" d="M 8.96875 0.21875 C 7.289062 0.21875 5.847656 -0.191406 4.640625 -1.015625 C 3.429688 -1.835938 2.515625 -2.941406 1.890625 -4.328125 C 1.265625 -5.710938 0.953125 -7.210938 0.953125 -8.828125 C 0.953125 -10.441406 1.265625 -11.9375 1.890625 -13.3125 C 2.515625 -14.6875 3.429688 -15.785156 4.640625 -16.609375 C 5.847656 -17.429688 7.289062 -17.84375 8.96875 -17.84375 C 11.019531 -17.84375 12.695312 -17.242188 14 -16.046875 C 15.300781 -14.847656 16.144531 -13.300781 16.53125 -11.40625 L 12.75 -11.40625 C 12.550781 -12.269531 12.117188 -12.992188 11.453125 -13.578125 C 10.796875 -14.160156 9.988281 -14.453125 9.03125 -14.453125 C 7.695312 -14.453125 6.691406 -13.929688 6.015625 -12.890625 C 5.335938 -11.847656 5 -10.492188 5 -8.828125 C 5 -7.128906 5.335938 -5.757812 6.015625 -4.71875 C 6.691406 -3.6875 7.695312 -3.171875 9.03125 -3.171875 C 9.976562 -3.171875 10.769531 -3.453125 11.40625 -4.015625 C 12.050781 -4.585938 12.484375 -5.265625 12.703125 -6.046875 L 16.421875 -6.046875 C 16.054688 -4.210938 15.226562 -2.707031 13.9375 -1.53125 C 12.644531 -0.363281 10.988281 0.21875 8.96875 0.21875 Z M 8.96875 0.21875 "/></g></g><g style="fill:#000000;fill-opacity:1;"><g transform="translate(280.942843, 196.927209)"><path style="stroke:none" d="M 5.21875 -14.09375 L 5.21875 -10.375 L 11.875 -10.375 L 11.875 -7.34375 L 5.21875 -7.34375 L 5.21875 -3.40625 L 13.125 -3.40625 L 13.125 0 L 1.296875 0 L 1.296875 -17.5 L 13.125 -17.5 L 13.125 -14.09375 Z M 5.21875 -14.09375 "/></g></g><g style="fill:#000000;fill-opacity:1;"><g transform="translate(295.090601, 196.927209)"><path style="stroke:none" d="M 7.78125 0.21875 C 6.375 0.21875 5.15625 -0.0507812 4.125 -0.59375 C 3.101562 -1.144531 2.332031 -1.863281 1.8125 -2.75 C 1.289062 -3.644531 1.03125 -4.578125 1.03125 -5.546875 L 1.03125 -5.75 L 5.296875 -5.75 L 5.296875 -5.578125 C 5.296875 -4.972656 5.507812 -4.421875 5.9375 -3.921875 C 6.375 -3.421875 7.007812 -3.171875 7.84375 -3.171875 C 8.5625 -3.171875 9.132812 -3.351562 9.5625 -3.71875 C 10 -4.09375 10.21875 -4.578125 10.21875 -5.171875 C 10.21875 -5.703125 10.023438 -6.128906 9.640625 -6.453125 C 9.265625 -6.785156 8.800781 -7.007812 8.25 -7.125 L 6.25 -7.53125 C 5.082031 -7.789062 3.988281 -8.285156 2.96875 -9.015625 C 1.957031 -9.753906 1.453125 -10.957031 1.453125 -12.625 C 1.453125 -13.707031 1.710938 -14.640625 2.234375 -15.421875 C 2.765625 -16.203125 3.492188 -16.800781 4.421875 -17.21875 C 5.359375 -17.632812 6.414062 -17.84375 7.59375 -17.84375 C 8.945312 -17.84375 10.113281 -17.582031 11.09375 -17.0625 C 12.082031 -16.550781 12.828125 -15.882812 13.328125 -15.0625 C 13.828125 -14.238281 14.078125 -13.375 14.078125 -12.46875 L 14.078125 -12.34375 L 9.796875 -12.34375 L 9.796875 -12.421875 C 9.796875 -12.953125 9.609375 -13.445312 9.234375 -13.90625 C 8.859375 -14.363281 8.265625 -14.59375 7.453125 -14.59375 C 6.816406 -14.59375 6.3125 -14.414062 5.9375 -14.0625 C 5.5625 -13.71875 5.375 -13.265625 5.375 -12.703125 C 5.375 -12.148438 5.582031 -11.710938 6 -11.390625 C 6.414062 -11.078125 6.914062 -10.863281 7.5 -10.75 L 9.53125 -10.296875 C 10.84375 -10.015625 11.960938 -9.484375 12.890625 -8.703125 C 13.828125 -7.921875 14.296875 -6.78125 14.296875 -5.28125 C 14.296875 -4.175781 14.007812 -3.207031 13.4375 -2.375 C 12.875 -1.539062 12.097656 -0.898438 11.109375 -0.453125 C 10.117188 -0.00390625 9.007812 0.21875 7.78125 0.21875 Z M 7.78125 0.21875 "/></g></g></g></svg>